<?xml version="1.0" encoding="UTF-8" standalone="no"?>
<svg
   xmlns:dc="http://purl.org/dc/elements/1.1/"
   xmlns:cc="http://creativecommons.org/ns#"
   xmlns:rdf="http://www.w3.org/1999/02/22-rdf-syntax-ns#"
   xmlns:svg="http://www.w3.org/2000/svg"
   xmlns="http://www.w3.org/2000/svg"
   xmlns:sodipodi="http://sodipodi.sourceforge.net/DTD/sodipodi-0.dtd"
   xmlns:inkscape="http://www.inkscape.org/namespaces/inkscape"
   version="1.1"
   width="30mm"
   height="30mm"
   id="svg47"
   viewBox="0 0 113.38583 113.38583"
   sodipodi:docname="JS Logo 30 x 30 - 2022.07.05.svg"
   inkscape:version="0.92.4 (5da689c313, 2019-01-14)"
   inkscape:export-filename="Z:\Werbematerial\Vorlagen\Logo\J.S. Fenster &amp; Türen\JS Logo - 2021.08.27 (2).png"
   inkscape:export-xdpi="153.49104"
   inkscape:export-ydpi="153.49104">
  <metadata
     id="metadata53">
    <rdf:RDF>
      <cc:Work
         rdf:about="">
        <dc:format>image/svg+xml</dc:format>
        <dc:type
           rdf:resource="http://purl.org/dc/dcmitype/StillImage" />
        <dc:title></dc:title>
      </cc:Work>
    </rdf:RDF>
  </metadata>
  <defs
     id="defs51" />
  <sodipodi:namedview
     pagecolor="#ffffff"
     bordercolor="#666666"
     borderopacity="1"
     objecttolerance="10"
     gridtolerance="10"
     guidetolerance="10"
     inkscape:pageopacity="0"
     inkscape:pageshadow="2"
     inkscape:window-width="1858"
     inkscape:window-height="1057"
     id="namedview49"
     showgrid="false"
     showguides="true"
     inkscape:guide-bbox="true"
     inkscape:object-nodes="false"
     inkscape:snap-bbox="true"
     inkscape:bbox-paths="true"
     inkscape:bbox-nodes="true"
     inkscape:snap-bbox-edge-midpoints="true"
     inkscape:snap-bbox-midpoints="true"
     units="mm"
     inkscape:document-units="mm"
     inkscape:zoom="4"
     inkscape:cx="46.040961"
     inkscape:cy="75.953649"
     inkscape:window-x="54"
     inkscape:window-y="-8"
     inkscape:window-maximized="1"
     inkscape:current-layer="svg47">
    <sodipodi:guide
       position="20.3125,31.271445"
       orientation="0,1"
       id="guide838"
       inkscape:locked="false" />
    <sodipodi:guide
       position="28.433372,11.4375"
       orientation="1,0"
       id="guide840"
       inkscape:locked="false" />
    <sodipodi:guide
       position="188.97675,10.284617"
       orientation="1,0"
       id="guide842"
       inkscape:locked="false" />
  </sodipodi:namedview>
  <path
     d="m 6.8703572,-0.00207204 c 0,0 -6.870295435042,0 -6.870295435042,6.91216904 v 99.557523 c 0,0 0,6.9167 6.870295435042,6.9167 H 28.858652 c 0,0 6.874582,0 6.874582,-6.9167 V 6.910097 c 0,0 0,-6.91216904 -6.874582,-6.91216904 z"
     style="fill:#9e9e9e;fill-rule:evenodd;stroke-width:0.9098658"
     id="path21"
     inkscape:connector-curvature="0" />
  <path
     d="m 54.286159,47.012367 c 0,0 -6.870293,0 -6.870293,6.91216 v 52.547623 c 0,0 0,6.91217 6.870293,6.91217 H 106.5113 c 0,0 6.87459,0 6.87459,-6.91217 V 53.924527 c 0,0 0,-6.91216 -6.87459,-6.91216 z"
     style="fill:#faba00;fill-rule:evenodd;stroke-width:0.9098658"
     id="path23"
     inkscape:connector-curvature="0" />
  <path
     d="m 54.286159,-3.8504467e-4 c 0,0 -6.870293,0 -6.870293,6.91217004467 v 22.127009 c 0,0 0,6.911756 6.870293,6.911756 H 106.5113 c 0,0 6.87459,0 6.87459,-6.911756 V 6.911785 c 0,0 0,-6.91217004467 -6.87459,-6.91217004467 z"
     style="fill:#c4c7c7;fill-rule:evenodd;stroke-width:0.9098658"
     id="path25"
     inkscape:connector-curvature="0" />
  <path
     d="m 6.8703572,-3.8504467e-4 c 0,0 -6.870295435042,0 -6.870295435042,6.91217004467 v 99.557525 c 0,0 0,6.9167 6.870295435042,6.9167 H 28.858652 c 0,0 6.874582,0 6.874582,-6.9167 V 6.911785 c 0,0 0,-6.91217004467 -6.874582,-6.91217004467 z"
     style="fill:#9e9e9e;fill-rule:evenodd;stroke-width:0.9098658"
     id="path35"
     inkscape:connector-curvature="0" />
  <path
     d="m 54.286159,47.014058 c 0,0 -6.870293,0 -6.870293,6.912161 v 52.547621 c 0,0 0,6.91217 6.870293,6.91217 H 106.5113 c 0,0 6.87459,0 6.87459,-6.91217 V 53.926219 c 0,0 0,-6.912161 -6.87459,-6.912161 z"
     style="fill:#fab20b;fill-opacity:1;fill-rule:evenodd;stroke-width:0.9098658"
     id="path37"
     inkscape:connector-curvature="0" />
  <path
     d="m 54.286159,-3.8504467e-4 c 0,0 -6.870293,0 -6.870293,6.91217004467 v 22.127009 c 0,0 0,6.911756 6.870293,6.911756 H 106.5113 c 0,0 6.87459,0 6.87459,-6.911756 V 6.911785 c 0,0 0,-6.91217004467 -6.87459,-6.91217004467 z"
     style="fill:#c4c7c7;fill-rule:evenodd;stroke-width:0.9098658"
     id="path39"
     inkscape:connector-curvature="0" />
</svg>
