<?xml version="1.0" encoding="UTF-8" standalone="no"?>
<!-- Created with Inkscape (http://www.inkscape.org/) -->

<svg
   xmlns:dc="http://purl.org/dc/elements/1.1/"
   xmlns:cc="http://creativecommons.org/ns#"
   xmlns:rdf="http://www.w3.org/1999/02/22-rdf-syntax-ns#"
   xmlns:svg="http://www.w3.org/2000/svg"
   xmlns="http://www.w3.org/2000/svg"
   xmlns:sodipodi="http://sodipodi.sourceforge.net/DTD/sodipodi-0.dtd"
   xmlns:inkscape="http://www.inkscape.org/namespaces/inkscape"
   version="1.1"
   id="svg2"
   xml:space="preserve"
   width="50mm"
   height="40mm"
   viewBox="0 0 188.97637 151.1811"
   sodipodi:docname="JS Logo 50 x 40 weiß - 2022.12.02.svg"
   inkscape:version="0.92.4 (5da689c313, 2019-01-14)"
   inkscape:export-filename="Z:\Werbematerial\Vorlagen\Logo\J.S. Fenster &amp; Türen\path340-0.png"
   inkscape:export-xdpi="300"
   inkscape:export-ydpi="300"><metadata
     id="metadata8"><rdf:RDF><cc:Work
         rdf:about=""><dc:format>image/svg+xml</dc:format><dc:type
           rdf:resource="http://purl.org/dc/dcmitype/StillImage" /><dc:title></dc:title></cc:Work></rdf:RDF></metadata><defs
     id="defs6" /><sodipodi:namedview
     pagecolor="#ffffff"
     bordercolor="#666666"
     borderopacity="1"
     objecttolerance="10"
     gridtolerance="10"
     guidetolerance="10"
     inkscape:pageopacity="0"
     inkscape:pageshadow="2"
     inkscape:window-width="1920"
     inkscape:window-height="1057"
     id="namedview4"
     showgrid="false"
     inkscape:document-units="mm"
     units="mm"
     inkscape:zoom="2"
     inkscape:cx="57.174003"
     inkscape:cy="130.57099"
     inkscape:window-x="1912"
     inkscape:window-y="-8"
     inkscape:window-maximized="1"
     inkscape:current-layer="g10"
     showguides="true"
     inkscape:guide-bbox="true"
     inkscape:snap-bbox="true"
     inkscape:bbox-paths="true"
     inkscape:bbox-nodes="true"
     inkscape:snap-bbox-edge-midpoints="true"
     inkscape:snap-bbox-midpoints="true"
     inkscape:object-paths="true"
     inkscape:snap-intersection-paths="true"
     inkscape:snap-midpoints="false"
     inkscape:snap-smooth-nodes="true"
     inkscape:snap-object-midpoints="true"
     inkscape:snap-center="true"><sodipodi:guide
       position="439.74346,135.14908"
       orientation="1,0"
       id="guide879"
       inkscape:locked="false" /></sodipodi:namedview><g
     id="g10"
     inkscape:groupmode="layer"
     inkscape:label="JS Inserat 119 x 90"
     transform="matrix(1.3333333,0,0,-1.3333333,1.3333333,149.84774)">



















<path
   d="m 11.535907,34.374626 v -2.181095 h -6.46446 v -3.444472 h 6.141351 V 26.479667 H 5.0421069 V 20.694278 H 2.5571237 V 34.374626 Z M 17.6871,30.73711 c 3.049375,0 4.574131,-1.554143 4.574131,-4.665431 0,-0.41478 -0.0293,-0.829191 -0.08839,-1.243971 h -6.666699 c 0,-1.416915 1.038222,-2.125325 3.118082,-2.125325 1.015302,0 2.027233,0.09768 3.042952,0.287208 v -2.007966 c -0.888285,-0.192535 -1.965688,-0.287347 -3.232483,-0.287347 -3.643799,0 -5.462372,1.711054 -5.462372,5.136027 0,3.271065 1.570361,4.906805 4.714779,4.906805 z M 15.506143,26.5876 h 4.286785 v 0.07517 c 0,1.390532 -0.702036,2.086284 -2.105828,2.086284 -1.338691,0 -2.066646,-0.721672 -2.180957,-2.161458 z m 8.655304,-5.893322 V 30.73711 h 1.962085 l 0.316595,-1.472176 c 0.960042,0.982591 2.056943,1.472176 3.287698,1.472176 2.38033,0 3.568671,-1.237039 3.568671,-3.708808 v -6.334024 h -2.533315 v 6.334024 c 0,1.106603 -0.552054,1.661661 -1.655377,1.661661 -0.822813,0 -1.626038,-0.32639 -2.40967,-0.985963 v -7.009722 z m 11.525174,0.479882 v 2.102778 c 1.116446,-0.447539 2.406252,-0.669414 3.865721,-0.669414 1.090478,0 1.635695,0.349446 1.635695,1.051481 0,0.669415 -0.368945,1.005508 -1.100274,1.005508 h -1.81848 c -2.040819,0 -3.059541,1.002181 -3.059541,3.013566 0,2.102409 1.488764,3.153843 4.466614,3.153843 1.263515,0 2.451855,-0.189115 3.568671,-0.571182 v -2.105782 c -1.116816,0.446985 -2.328074,0.66886 -3.637423,0.66886 -1.371035,0 -2.053571,-0.349308 -2.053571,-1.050927 0,-0.669414 0.398194,-1.006016 1.19504,-1.006016 h 1.626037 c 2.229841,0 3.34624,-1.002088 3.34624,-3.010146 0,-2.105828 -1.419871,-3.157171 -4.263866,-3.157171 -1.397369,0 -2.654417,0.189532 -3.770863,0.574602 z m 9.661183,11.188988 h 1.877253 l 0.382021,-1.626038 h 2.524026 V 28.729514 H 47.88463 v -4.620105 c 0,-0.936986 0.404984,-1.407026 1.214538,-1.407026 h 1.031936 v -2.008105 h -2.256316 c -1.684717,0 -2.526984,0.900946 -2.526984,2.70672 z M 56.089762,30.73711 c 3.049327,0 4.57413,-1.554143 4.57413,-4.665431 0,-0.41478 -0.02934,-0.829191 -0.08839,-1.243971 h -6.666698 c 0,-1.416915 1.038221,-2.125325 3.118081,-2.125325 1.015304,0 2.027234,0.09768 3.042907,0.287208 v -2.007966 c -0.888241,-0.192535 -1.965504,-0.287347 -3.232439,-0.287347 -3.643797,0 -5.462371,1.711054 -5.462371,5.136027 0,3.271065 1.570361,4.906805 4.71478,4.906805 z M 53.908804,26.5876 h 4.286784 v 0.07517 c 0,1.390532 -0.702034,2.086284 -2.105826,2.086284 -1.338691,0 -2.066648,-0.721672 -2.180958,-2.161459 z m 8.655258,-5.893322 V 30.73711 h 1.962131 l 0.316688,-1.27964 c 0.878444,0.852154 1.808638,1.27964 2.791737,1.27964 v -2.047147 c -0.943963,0 -1.789233,-0.391354 -2.533823,-1.175079 v -6.820606 z m 10.568966,9.899274 c 0,2.520608 1.626038,3.781074 4.878024,3.781074 1.178494,0 2.327653,-0.160146 3.444473,-0.480253 v -2.007596 c -1.11682,0.316595 -2.223421,0.476371 -3.320327,0.476371 -1.645576,0 -2.468344,-0.574603 -2.468344,-1.720341 0,-1.338691 0.656192,-2.008105 1.96213,-2.008105 h 3.232023 v 1.358327 h 1.368027 l 0.976171,-1.358327 h 1.740393 v -2.011385 h -1.547351 v -1.240551 c 0,-3.144049 -1.750196,-4.717829 -5.243552,-4.717829 -3.346791,0 -5.021667,1.328988 -5.021667,3.989873 0,1.446209 0.584398,2.445294 1.750097,2.993929 -1.165699,0.541843 -1.750097,1.524526 -1.750097,2.944813 z m 4.515454,-3.970235 c -1.322424,0 -1.981628,-0.639659 -1.981628,-1.919669 0,-1.335271 0.83247,-2.001265 2.497687,-2.001265 1.798939,0 2.696466,0.900945 2.696466,2.696462 v 1.224472 z M 99.62845,34.374626 V 32.174031 H 95.707046 V 20.694278 h -2.536682 v 11.479753 h -3.921349 v 2.200595 z m 8.80574,-3.637516 V 20.694278 h -1.98212 l -0.30349,1.283013 c -1.156,-0.855527 -2.38033,-1.283013 -3.67318,-1.283013 -2.05352,0 -3.08195,1.21463 -3.08195,3.643844 v 6.398988 h 2.53673 v -6.330512 c 0,-1.110116 0.48316,-1.665219 1.45301,-1.665219 0.82281,0 1.66165,0.329809 2.51381,0.986009 v 7.009722 z m -1.86441,3.637516 v -1.818573 h -2.05693 v 1.818573 z m -3.25548,0 v -1.818573 h -2.05353 v 1.818573 z m 7.50956,-13.680348 V 30.73711 h 1.96222 l 0.3166,-1.27964 c 0.87839,0.852154 1.80873,1.27964 2.79168,1.27964 v -2.047147 c -0.94378,0 -1.78908,-0.391354 -2.53368,-1.175079 v -6.820606 z m 10.74195,10.042832 c 3.04933,0 4.57413,-1.554143 4.57413,-4.665431 0,-0.41478 -0.0294,-0.829191 -0.0884,-1.243971 h -6.66675 c 0,-1.416915 1.03826,-2.125325 3.11813,-2.125325 1.01531,0 2.02718,0.09768 3.0429,0.287208 v -2.007966 c -0.88828,-0.192535 -1.9655,-0.287347 -3.23244,-0.287347 -3.64384,0 -5.46241,1.711054 -5.46241,5.136027 0,3.271065 1.57041,4.906805 4.71483,4.906805 z m -2.181,-4.14951 h 4.28678 v 0.07517 c 0,1.390532 -0.70198,2.086284 -2.10578,2.086284 -1.33869,0 -2.06664,-0.721672 -2.181,-2.161458 z m 8.65531,-5.893322 V 30.73711 h 1.96213 l 0.31669,-1.472176 c 0.96004,0.982591 2.05693,1.472176 3.28769,1.472176 2.38033,0 3.56853,-1.237039 3.56853,-3.708808 v -6.334024 h -2.5333 v 6.334024 c 0,1.106603 -0.55207,1.661661 -1.65539,1.661661 -0.82276,0 -1.62589,-0.32639 -2.40967,-0.985963 v -7.009722 z"
   style="fill:#ffffff;fill-opacity:1;fill-rule:nonzero;stroke:none;stroke-width:0.54621857"
   id="path252"
   inkscape:connector-curvature="0"
   inkscape:export-xdpi="300"
   inkscape:export-ydpi="300" /><g
   id="g851"
   transform="translate(-1.124998,-17.128018)"
   style="fill:#ffffff;fill-opacity:1"
   inkscape:export-xdpi="300"
   inkscape:export-ydpi="300"><path
     inkscape:connector-curvature="0"
     id="path244"
     style="fill:#ffffff;fill-opacity:1;fill-rule:nonzero;stroke:none;stroke-width:0.53719026"
     d="m 91.506519,74.658112 v -6.574276 h -7.105891 v 6.574276 z m 6.034293,-4.962889 v 6.437134 c 3.844858,-1.42903 8.195108,-2.142865 13.038848,-2.142865 5.88775,0 8.82679,1.959284 8.82679,5.89725 0,2.86524 -1.80446,4.294273 -5.42052,4.294273 h -6.00689 c -7.85672,0 -11.775505,3.570709 -11.775505,10.731349 0,7.865076 5.585055,11.801766 16.765825,11.801766 4.29423,0 8.35956,-0.63172 12.2057,-1.87598 v -6.437276 c -3.84614,1.42785 -7.91147,2.141866 -12.2057,2.141866 -6.43726,0 -9.66008,-1.875986 -9.66008,-5.630376 0,-2.86642 1.55668,-4.29427 4.66976,-4.29427 h 6.00689 c 8.35015,0 12.52514,-3.58026 12.52514,-10.731352 0,-8.048654 -5.31083,-12.068643 -15.93141,-12.068643 -4.84374,0 -9.19399,0.623317 -13.038848,1.877124 z m 40.773158,4.962889 v -6.574276 h -7.10576 v 6.574276 z" /><path
     inkscape:connector-curvature="0"
     id="path246"
     style="fill:#ffffff;fill-opacity:1;fill-rule:nonzero;stroke:none;stroke-width:0.54621857"
     d="m 6.1359661,107.91425 c 0,0 -2.4676567,0 -2.4676567,-2.46779 V 69.902162 c 0,0 0,-2.469229 2.4676567,-2.469229 h 7.8982849 c 0,0 2.469367,0 2.469367,2.469229 v 35.544298 c 0,0 0,2.46779 -2.469367,2.46779 z" /><path
     inkscape:connector-curvature="0"
     id="path248"
     style="fill:#ffffff;fill-opacity:1;fill-rule:nonzero;stroke:none;stroke-width:0.54621857"
     d="m 22.923995,91.128994 c 0,0 -2.467702,0 -2.467702,-2.46766 V 69.900586 c 0,0 0,-2.467658 2.467702,-2.467658 h 18.759037 c 0,0 2.469366,0 2.469366,2.467658 v 18.760748 c 0,0 0,2.46766 -2.469366,2.46766 z" /><path
     inkscape:connector-curvature="0"
     id="path250"
     style="fill:#ffffff;fill-opacity:1;fill-rule:nonzero;stroke:none;stroke-width:0.54621857"
     d="m 22.923995,107.91424 c 0,0 -2.467702,0 -2.467702,-2.46779 v -7.899846 c 0,0 0,-2.46766 2.467702,-2.46766 h 18.759037 c 0,0 2.469366,0 2.469366,2.46766 v 7.899846 c 0,0 0,2.46779 -2.469366,2.46779 z" /><path
     inkscape:connector-curvature="0"
     id="path254"
     style="fill:#ffffff;fill-opacity:1;fill-rule:evenodd;stroke:none;stroke-width:0.54621857"
     d="M 69.059578,106.71413 V 81.965022 c 0,-0.719457 -0.01829,-1.440436 -0.06811,-2.158319 -0.04085,-0.589528 -0.102947,-1.18141 -0.204178,-1.763821 -0.13501,-0.776933 -0.369315,-1.717107 -0.834689,-2.367901 -0.881864,-1.233529 -2.371043,-1.575997 -3.811984,-1.575997 -1.725841,0 -3.080517,0.689189 -3.982156,2.172593 -0.344596,0.566701 -0.546834,1.266103 -0.679626,1.911443 -0.176687,0.857745 -0.259301,1.753469 -0.301347,2.630856 L 52.187402,79.99753 c 0.03798,-3.241866 0.728465,-6.642859 3.050761,-9.051604 2.286026,-2.371183 5.437929,-3.127832 8.641813,-3.127832 2.671882,0 5.485982,0.462602 7.729407,2.00404 1.932144,1.327415 3.288623,3.089434 4.028915,5.315209 0.329394,0.990306 0.510794,2.063504 0.628154,3.098444 0.158344,1.396955 0.206165,2.818164 0.206165,4.223394 v 24.254949 z" /></g><path
   d="M -0.99999849,112.38581 H 140.73228 v -5.6693 H -0.99999849 Z"
   style="fill:#ffffff;fill-opacity:1;fill-rule:evenodd;stroke:none;stroke-width:0.54621857"
   id="path340"
   inkscape:connector-curvature="0"
   inkscape:export-xdpi="300"
   inkscape:export-ydpi="300" /><path
   d="M -0.99999737,4.669275 H 140.73228 V -1.000016 H -0.99999737 Z"
   style="fill:#ffffff;fill-opacity:1;fill-rule:evenodd;stroke:none;stroke-width:0.54621857"
   id="path340-0"
   inkscape:connector-curvature="0"
   inkscape:export-xdpi="300"
   inkscape:export-ydpi="300" />


</g></svg>