<?xml version="1.0" encoding="UTF-8" standalone="no"?>
<svg
   xmlns:dc="http://purl.org/dc/elements/1.1/"
   xmlns:cc="http://creativecommons.org/ns#"
   xmlns:rdf="http://www.w3.org/1999/02/22-rdf-syntax-ns#"
   xmlns:svg="http://www.w3.org/2000/svg"
   xmlns="http://www.w3.org/2000/svg"
   xmlns:sodipodi="http://sodipodi.sourceforge.net/DTD/sodipodi-0.dtd"
   xmlns:inkscape="http://www.inkscape.org/namespaces/inkscape"
   version="1.1"
   width="50mm"
   height="8.2740002mm"
   id="svg47"
   viewBox="0 0 188.97638 31.271811"
   sodipodi:docname="JS Logo - 2020.01.28.svg"
   inkscape:version="0.92.4 (5da689c313, 2019-01-14)"
   inkscape:export-filename="Z:\Werbematerial\Vorlagen\Logo\J.S. Fenster &amp; Türen\JS Logo - 2021.08.27 (2).png"
   inkscape:export-xdpi="153.49104"
   inkscape:export-ydpi="153.49104">
  <metadata
     id="metadata53">
    <rdf:RDF>
      <cc:Work
         rdf:about="">
        <dc:format>image/svg+xml</dc:format>
        <dc:type
           rdf:resource="http://purl.org/dc/dcmitype/StillImage" />
        <dc:title />
      </cc:Work>
    </rdf:RDF>
  </metadata>
  <defs
     id="defs51" />
  <sodipodi:namedview
     pagecolor="#ffffff"
     bordercolor="#666666"
     borderopacity="1"
     objecttolerance="10"
     gridtolerance="10"
     guidetolerance="10"
     inkscape:pageopacity="0"
     inkscape:pageshadow="2"
     inkscape:window-width="1858"
     inkscape:window-height="1057"
     id="namedview49"
     showgrid="false"
     showguides="true"
     inkscape:guide-bbox="true"
     inkscape:object-nodes="false"
     inkscape:snap-bbox="true"
     inkscape:bbox-paths="true"
     inkscape:bbox-nodes="true"
     inkscape:snap-bbox-edge-midpoints="true"
     inkscape:snap-bbox-midpoints="true"
     units="mm"
     inkscape:document-units="mm"
     inkscape:zoom="4"
     inkscape:cx="93.635623"
     inkscape:cy="6.2349356"
     inkscape:window-x="54"
     inkscape:window-y="-8"
     inkscape:window-maximized="1"
     inkscape:current-layer="svg47">
    <sodipodi:guide
       position="20.3125,31.271445"
       orientation="0,1"
       id="guide838"
       inkscape:locked="false" />
    <sodipodi:guide
       position="28.433372,11.4375"
       orientation="1,0"
       id="guide840"
       inkscape:locked="false" />
    <sodipodi:guide
       position="188.97675,10.284617"
       orientation="1,0"
       id="guide842"
       inkscape:locked="false" />
  </sodipodi:namedview>
  <path
     d="m -3.6169975e-4,30.749261 c 0,0 0,0.52292 0.51354779975,0.52292 H 188.46271 c 0,0 0.51403,0 0.51403,-0.52292 v -1.707399 c 0,0 0,-0.522456 -0.51403,-0.522456 H 0.5131861 c 0,0 -0.51354779975,0 -0.51354779975,0.522456 z"
     style="fill:#fab20b;fill-opacity:1;fill-rule:evenodd;stroke-width:0.95576346"
     id="path19"
     inkscape:connector-curvature="0" />
  <path
     d="m 1.4863627,0 c 0,0 -1.48672439975,0 -1.48672439975,1.4957859 V 23.039926 c 0,0 0,1.496766 1.48672439975,1.496766 h 4.758243 c 0,0 1.487652,0 1.487652,-1.496766 V 1.4957859 c 0,0 0,-1.4957859 -1.487652,-1.4957859 z"
     style="fill:#9e9e9e;fill-rule:evenodd;stroke-width:0.9098658"
     id="path21"
     inkscape:connector-curvature="0" />
  <path
     d="m 11.747091,10.173873 c 0,0 -1.486724,0 -1.486724,1.495784 v 11.37125 c 0,0 0,1.495785 1.486724,1.495785 h 11.301464 c 0,0 1.487653,0 1.487653,-1.495785 v -11.37125 c 0,0 0,-1.495784 -1.487653,-1.495784 z"
     style="fill:#faba00;fill-rule:evenodd;stroke-width:0.9098658"
     id="path23"
     inkscape:connector-curvature="0" />
  <path
     d="m 11.747091,3.6506e-4 c 0,0 -1.486724,0 -1.486724,1.49578594 v 4.7882608 c 0,0 0,1.4956964 1.486724,1.4956964 h 11.301464 c 0,0 1.487653,0 1.487653,-1.4956964 V 1.496151 c 0,0 0,-1.49578594 -1.487653,-1.49578594 z"
     style="fill:#c4c7c7;fill-rule:evenodd;stroke-width:0.9098658"
     id="path25"
     inkscape:connector-curvature="0" />
  <path
     d="m 1.4863627,3.6506e-4 c 0,0 -1.48672439975,0 -1.48672439975,1.49578594 v 21.54414 c 0,0 0,1.496766 1.48672439975,1.496766 h 4.758243 c 0,0 1.487652,0 1.487652,-1.496766 V 1.496151 c 0,0 0,-1.49578594 -1.487652,-1.49578594 z"
     style="fill:#9e9e9e;fill-rule:evenodd;stroke-width:0.9098658"
     id="path35"
     inkscape:connector-curvature="0" />
  <path
     d="m 11.747091,10.174239 c 0,0 -1.486724,0 -1.486724,1.495784 v 11.37125 c 0,0 0,1.495785 1.486724,1.495785 h 11.301464 c 0,0 1.487653,0 1.487653,-1.495785 v -11.37125 c 0,0 0,-1.495784 -1.487653,-1.495784 z"
     style="fill:#fab20b;fill-opacity:1;fill-rule:evenodd;stroke-width:0.9098658"
     id="path37"
     inkscape:connector-curvature="0" />
  <path
     d="m 11.747091,3.6506e-4 c 0,0 -1.486724,0 -1.486724,1.49578594 v 4.7882608 c 0,0 0,1.4956964 1.486724,1.4956964 h 11.301464 c 0,0 1.487653,0 1.487653,-1.4956964 V 1.496151 c 0,0 0,-1.49578594 -1.487653,-1.49578594 z"
     style="fill:#c4c7c7;fill-rule:evenodd;stroke-width:0.9098658"
     id="path39"
     inkscape:connector-curvature="0" />
  <text
     x="27.719591"
     y="24.489473"
     id="text43"
     style="font-size:11.13768482px;fill:#fab20b;fill-opacity:1;stroke-width:0.9281404">
    <tspan
       font-size="10.5000"
       id="tspan41"
       style="font-style:normal;font-variant:normal;font-weight:bold;font-stretch:normal;font-size:9.74547482px;font-family:Sansation;-inkscape-font-specification:'Sansation, Bold';font-variant-ligatures:normal;font-variant-caps:normal;font-variant-numeric:normal;font-feature-settings:normal;text-align:start;writing-mode:lr-tb;text-anchor:start;fill:#fab20b;fill-opacity:1;stroke-width:0.9281404">Ihr Fachbetrieb für Fenster und Türen</tspan>
  </text>
  <g
     id="g845"
     transform="matrix(0.83660141,0,0,0.83660141,-38.805049,-7.9045279)">
    <text
       style="font-size:13.36295223px;stroke-width:1.11357927"
       id="text29-3"
       y="24.717033"
       x="91.638924">
      <tspan
         style="font-style:normal;font-variant:normal;font-weight:bold;font-stretch:normal;font-size:21.71479607px;font-family:Sansation;-inkscape-font-specification:'Sansation, Bold';font-variant-ligatures:normal;font-variant-caps:normal;font-variant-numeric:normal;font-feature-settings:normal;text-align:start;writing-mode:lr-tb;text-anchor:start;fill:#737370;stroke-width:1.11357927"
         id="tspan27-1"
         font-size="19.5000">.S. Fenster &amp; Türen</tspan>
    </text>
    <text
       style="font-size:13.6979475px;stroke-width:1.14149547"
       id="text33-7"
       y="24.565273"
       x="80.010017">
      <tspan
         style="font-style:normal;font-variant:normal;font-weight:bold;font-stretch:normal;font-size:21.11766815px;font-family:Arial;-inkscape-font-specification:'Arial, Bold';font-variant-ligatures:normal;font-variant-caps:normal;font-variant-numeric:normal;font-feature-settings:normal;text-align:start;writing-mode:lr-tb;text-anchor:start;fill:#737370;stroke-width:1.14149547"
         id="tspan31-5"
         font-size="18.5000">J</tspan>
    </text>
  </g>
</svg>
